<?xml version="1.0" encoding="UTF-8" standalone="no"?>
<!DOCTYPE svg PUBLIC "-//W3C//DTD SVG 1.1//EN"
 "http://www.w3.org/Graphics/SVG/1.1/DTD/svg11.dtd">
<!-- Generated by graphviz version 12.2.1 (0)
 -->
<!-- Title: G Pages: 1 -->
<svg width="722pt" height="332pt"
 viewBox="0.00 0.00 722.26 332.00" xmlns="http://www.w3.org/2000/svg" xmlns:xlink="http://www.w3.org/1999/xlink">
<g id="graph0" class="graph" transform="scale(1 1) rotate(0) translate(4 328)">
<title>G</title>
<polygon fill="white" stroke="none" points="-4,4 -4,-328 718.26,-328 718.26,4 -4,4"/>
<!-- 0 -->
<g id="node1" class="node">
<title>0</title>
<ellipse fill="none" stroke="black" cx="351.77" cy="-306" rx="27" ry="18"/>
<text text-anchor="middle" x="351.77" y="-300.95" font-family="Times,serif" font-size="14.00">iup</text>
</g>
<!-- 1 -->
<g id="node2" class="node">
<title>1</title>
<ellipse fill="none" stroke="black" cx="408.77" cy="-162" rx="29.34" ry="18"/>
<text text-anchor="middle" x="408.77" y="-156.95" font-family="Times,serif" font-size="14.00">libcd</text>
</g>
<!-- 0&#45;&gt;1 -->
<g id="edge1" class="edge">
<title>0&#45;&gt;1</title>
<path fill="none" stroke="black" d="M369.89,-292.18C381.82,-282.61 396.53,-268.39 403.77,-252 412.14,-233.05 413.12,-209.57 412.16,-191.49"/>
<polygon fill="black" stroke="black" points="415.66,-191.43 411.39,-181.74 408.68,-191.98 415.66,-191.43"/>
</g>
<!-- 2 -->
<g id="node3" class="node">
<title>2</title>
<ellipse fill="none" stroke="black" cx="152.77" cy="-234" rx="33.95" ry="18"/>
<text text-anchor="middle" x="152.77" y="-228.95" font-family="Times,serif" font-size="14.00">lua&#45;cd</text>
</g>
<!-- 0&#45;&gt;2 -->
<g id="edge2" class="edge">
<title>0&#45;&gt;2</title>
<path fill="none" stroke="black" d="M327.59,-297.19C296.81,-287.16 242.08,-269.01 195.77,-252 193.73,-251.25 191.65,-250.47 189.55,-249.68"/>
<polygon fill="black" stroke="black" points="191.07,-246.51 180.48,-246.18 188.55,-253.04 191.07,-246.51"/>
</g>
<!-- 3 -->
<g id="node4" class="node">
<title>3</title>
<ellipse fill="none" stroke="black" cx="493.77" cy="-234" rx="43.16" ry="18"/>
<text text-anchor="middle" x="493.77" y="-228.95" font-family="Times,serif" font-size="14.00">lua51&#45;cd</text>
</g>
<!-- 0&#45;&gt;3 -->
<g id="edge3" class="edge">
<title>0&#45;&gt;3</title>
<path fill="none" stroke="black" d="M373.03,-294.52C395.02,-283.68 429.81,-266.53 456.41,-253.42"/>
<polygon fill="black" stroke="black" points="457.74,-256.66 465.16,-249.1 454.65,-250.38 457.74,-256.66"/>
</g>
<!-- 4 -->
<g id="node5" class="node">
<title>4</title>
<ellipse fill="none" stroke="black" cx="247.77" cy="-234" rx="43.16" ry="18"/>
<text text-anchor="middle" x="247.77" y="-228.95" font-family="Times,serif" font-size="14.00">lua52&#45;cd</text>
</g>
<!-- 0&#45;&gt;4 -->
<g id="edge4" class="edge">
<title>0&#45;&gt;4</title>
<path fill="none" stroke="black" d="M333.18,-292.49C318.19,-282.4 296.78,-267.99 279.15,-256.12"/>
<polygon fill="black" stroke="black" points="281.31,-253.36 271.06,-250.68 277.41,-259.17 281.31,-253.36"/>
</g>
<!-- 5 -->
<g id="node6" class="node">
<title>5</title>
<ellipse fill="none" stroke="black" cx="351.77" cy="-234" rx="43.16" ry="18"/>
<text text-anchor="middle" x="351.77" y="-228.95" font-family="Times,serif" font-size="14.00">lua53&#45;cd</text>
</g>
<!-- 0&#45;&gt;5 -->
<g id="edge5" class="edge">
<title>0&#45;&gt;5</title>
<path fill="none" stroke="black" d="M351.77,-287.7C351.77,-280.41 351.77,-271.73 351.77,-263.54"/>
<polygon fill="black" stroke="black" points="355.27,-263.62 351.77,-253.62 348.27,-263.62 355.27,-263.62"/>
</g>
<!-- 6 -->
<g id="node7" class="node">
<title>6</title>
<ellipse fill="none" stroke="black" cx="47.77" cy="-90" rx="47.77" ry="18"/>
<text text-anchor="middle" x="47.77" y="-84.95" font-family="Times,serif" font-size="14.00">pdflib&#45;lite</text>
</g>
<!-- 1&#45;&gt;6 -->
<g id="edge7" class="edge">
<title>1&#45;&gt;6</title>
<path fill="none" stroke="black" d="M381.04,-155.62C321.09,-144 178.53,-116.35 100.7,-101.26"/>
<polygon fill="black" stroke="black" points="101.67,-97.89 91.19,-99.42 100.34,-104.76 101.67,-97.89"/>
</g>
<!-- 7 -->
<g id="node8" class="node">
<title>7</title>
<ellipse fill="none" stroke="black" cx="218.77" cy="-90" rx="35.49" ry="18"/>
<text text-anchor="middle" x="218.77" y="-84.95" font-family="Times,serif" font-size="14.00">lua&#45;im</text>
</g>
<!-- 1&#45;&gt;7 -->
<g id="edge8" class="edge">
<title>1&#45;&gt;7</title>
<path fill="none" stroke="black" d="M383.93,-151.85C351.79,-140.01 295.46,-119.26 257.64,-105.32"/>
<polygon fill="black" stroke="black" points="259.03,-102.1 248.44,-101.93 256.61,-108.67 259.03,-102.1"/>
</g>
<!-- 8 -->
<g id="node9" class="node">
<title>8</title>
<ellipse fill="none" stroke="black" cx="640.77" cy="-90" rx="44.7" ry="18"/>
<text text-anchor="middle" x="640.77" y="-84.95" font-family="Times,serif" font-size="14.00">lua51&#45;im</text>
</g>
<!-- 1&#45;&gt;8 -->
<g id="edge9" class="edge">
<title>1&#45;&gt;8</title>
<path fill="none" stroke="black" d="M434.93,-153.11C473.66,-141.42 546.81,-119.35 594.66,-104.91"/>
<polygon fill="black" stroke="black" points="595.64,-108.27 604.2,-102.03 593.61,-101.57 595.64,-108.27"/>
</g>
<!-- 9 -->
<g id="node10" class="node">
<title>9</title>
<ellipse fill="none" stroke="black" cx="519.77" cy="-90" rx="44.7" ry="18"/>
<text text-anchor="middle" x="519.77" y="-84.95" font-family="Times,serif" font-size="14.00">lua52&#45;im</text>
</g>
<!-- 1&#45;&gt;9 -->
<g id="edge10" class="edge">
<title>1&#45;&gt;9</title>
<path fill="none" stroke="black" d="M428.61,-148.49C444.79,-138.29 467.97,-123.67 486.91,-111.72"/>
<polygon fill="black" stroke="black" points="488.77,-114.69 495.36,-106.39 485.04,-108.77 488.77,-114.69"/>
</g>
<!-- 10 -->
<g id="node11" class="node">
<title>10</title>
<ellipse fill="none" stroke="black" cx="351.77" cy="-90" rx="44.7" ry="18"/>
<text text-anchor="middle" x="351.77" y="-84.95" font-family="Times,serif" font-size="14.00">lua53&#45;im</text>
</g>
<!-- 1&#45;&gt;10 -->
<g id="edge11" class="edge">
<title>1&#45;&gt;10</title>
<path fill="none" stroke="black" d="M396.12,-145.46C389.16,-136.92 380.35,-126.1 372.42,-116.36"/>
<polygon fill="black" stroke="black" points="375.16,-114.19 366.13,-108.64 369.73,-118.61 375.16,-114.19"/>
</g>
<!-- 11 -->
<g id="node12" class="node">
<title>11</title>
<ellipse fill="none" stroke="black" cx="424.77" cy="-18" rx="30.88" ry="18"/>
<text text-anchor="middle" x="424.77" y="-12.95" font-family="Times,serif" font-size="14.00">libim</text>
</g>
<!-- 1&#45;&gt;11 -->
<g id="edge6" class="edge">
<title>1&#45;&gt;11</title>
<path fill="none" stroke="black" d="M410.73,-143.59C413.43,-119.61 418.33,-76.14 421.57,-47.42"/>
<polygon fill="black" stroke="black" points="425.03,-47.94 422.67,-37.61 418.07,-47.16 425.03,-47.94"/>
</g>
<!-- 2&#45;&gt;1 -->
<g id="edge12" class="edge">
<title>2&#45;&gt;1</title>
<path fill="none" stroke="black" d="M178.95,-222.01C184.46,-219.88 190.26,-217.76 195.77,-216 255.77,-196.77 327.12,-180.27 370.12,-171"/>
<polygon fill="black" stroke="black" points="370.68,-174.46 379.73,-168.95 369.22,-167.61 370.68,-174.46"/>
</g>
<!-- 2&#45;&gt;6 -->
<g id="edge13" class="edge">
<title>2&#45;&gt;6</title>
<path fill="none" stroke="black" d="M136.26,-218.14C125.48,-207.98 111.47,-193.89 100.77,-180 85.72,-160.47 71.59,-136.33 61.71,-118.13"/>
<polygon fill="black" stroke="black" points="64.91,-116.69 57.12,-109.51 58.73,-119.98 64.91,-116.69"/>
</g>
<!-- 2&#45;&gt;7 -->
<g id="edge14" class="edge">
<title>2&#45;&gt;7</title>
<path fill="none" stroke="black" d="M136.23,-217.99C118.33,-199.86 94.29,-168.73 109.77,-144 124.03,-121.21 151.21,-107.97 174.85,-100.42"/>
<polygon fill="black" stroke="black" points="175.68,-103.82 184.3,-97.67 173.73,-97.1 175.68,-103.82"/>
</g>
<!-- 2&#45;&gt;8 -->
<g id="edge15" class="edge">
<title>2&#45;&gt;8</title>
<path fill="none" stroke="black" d="M178.36,-221.75C184.01,-219.59 190.03,-217.52 195.77,-216 304.69,-187.09 339.3,-213.93 446.77,-180 480.51,-169.35 485.73,-159.01 517.77,-144 544.79,-131.34 575.64,-118.05 599.68,-107.95"/>
<polygon fill="black" stroke="black" points="600.93,-111.22 608.81,-104.13 598.23,-104.76 600.93,-111.22"/>
</g>
<!-- 2&#45;&gt;9 -->
<g id="edge16" class="edge">
<title>2&#45;&gt;9</title>
<path fill="none" stroke="black" d="M178.79,-221.93C219.51,-204.7 300.88,-170.68 370.77,-144 405.8,-130.63 445.85,-116.44 475.6,-106.11"/>
<polygon fill="black" stroke="black" points="476.73,-109.43 485.04,-102.85 474.44,-102.81 476.73,-109.43"/>
</g>
<!-- 2&#45;&gt;10 -->
<g id="edge17" class="edge">
<title>2&#45;&gt;10</title>
<path fill="none" stroke="black" d="M172.58,-218.87C207.44,-193.99 279.95,-142.25 321.25,-112.78"/>
<polygon fill="black" stroke="black" points="323.21,-115.68 329.31,-107.02 319.14,-109.98 323.21,-115.68"/>
</g>
<!-- 3&#45;&gt;1 -->
<g id="edge18" class="edge">
<title>3&#45;&gt;1</title>
<path fill="none" stroke="black" d="M474.9,-217.46C462.98,-207.65 447.42,-194.83 434.39,-184.1"/>
<polygon fill="black" stroke="black" points="436.96,-181.68 427.02,-178.03 432.51,-187.09 436.96,-181.68"/>
</g>
<!-- 3&#45;&gt;6 -->
<g id="edge19" class="edge">
<title>3&#45;&gt;6</title>
<path fill="none" stroke="black" d="M457.66,-223.73C419.1,-213.66 356.3,-196.75 302.77,-180 227.93,-156.58 142.05,-125.78 91.49,-107.24"/>
<polygon fill="black" stroke="black" points="92.97,-104.05 82.37,-103.88 90.55,-110.62 92.97,-104.05"/>
</g>
<!-- 3&#45;&gt;7 -->
<g id="edge20" class="edge">
<title>3&#45;&gt;7</title>
<path fill="none" stroke="black" d="M462.96,-220.95C437.79,-210.82 401.48,-195.53 370.77,-180 327.74,-158.24 280.06,-129.52 249.77,-110.67"/>
<polygon fill="black" stroke="black" points="251.82,-107.82 241.48,-105.48 248.1,-113.76 251.82,-107.82"/>
</g>
<!-- 3&#45;&gt;8 -->
<g id="edge21" class="edge">
<title>3&#45;&gt;8</title>
<path fill="none" stroke="black" d="M535.42,-228.71C591.52,-221.97 686.78,-206.83 707.77,-180 717.63,-167.4 714.74,-158.4 707.77,-144 701.24,-130.52 689.44,-119.42 677.53,-110.93"/>
<polygon fill="black" stroke="black" points="679.6,-108.1 669.33,-105.52 675.75,-113.95 679.6,-108.1"/>
</g>
<!-- 3&#45;&gt;9 -->
<g id="edge22" class="edge">
<title>3&#45;&gt;9</title>
<path fill="none" stroke="black" d="M530.25,-223.99C552.83,-216.32 580.04,-202.81 593.77,-180 602.02,-166.29 601.08,-158.23 593.77,-144 586.27,-129.41 572.69,-117.94 559.19,-109.45"/>
<polygon fill="black" stroke="black" points="561.17,-106.56 550.77,-104.56 557.65,-112.61 561.17,-106.56"/>
</g>
<!-- 3&#45;&gt;10 -->
<g id="edge23" class="edge">
<title>3&#45;&gt;10</title>
<path fill="none" stroke="black" d="M488.07,-215.78C480.95,-196.39 467.16,-164.87 446.77,-144 431.87,-128.76 411.65,-116.65 393.69,-107.88"/>
<polygon fill="black" stroke="black" points="395.35,-104.8 384.81,-103.75 392.39,-111.14 395.35,-104.8"/>
</g>
<!-- 4&#45;&gt;1 -->
<g id="edge24" class="edge">
<title>4&#45;&gt;1</title>
<path fill="none" stroke="black" d="M276.92,-220.32C304.49,-208.34 345.83,-190.37 374.85,-177.75"/>
<polygon fill="black" stroke="black" points="376.15,-181 383.93,-173.8 373.36,-174.58 376.15,-181"/>
</g>
<!-- 4&#45;&gt;6 -->
<g id="edge25" class="edge">
<title>4&#45;&gt;6</title>
<path fill="none" stroke="black" d="M215.18,-221.81C208.78,-219.76 202.09,-217.73 195.77,-216 124.63,-196.52 79.92,-237.53 33.77,-180 19.96,-162.79 25.62,-137.51 33.49,-118.29"/>
<polygon fill="black" stroke="black" points="36.57,-119.99 37.49,-109.43 30.19,-117.11 36.57,-119.99"/>
</g>
<!-- 4&#45;&gt;7 -->
<g id="edge26" class="edge">
<title>4&#45;&gt;7</title>
<path fill="none" stroke="black" d="M222.78,-219.06C209.1,-209.92 193.41,-196.59 185.77,-180 176.11,-159.04 186.9,-134.37 198.65,-116.33"/>
<polygon fill="black" stroke="black" points="201.41,-118.49 204.29,-108.29 195.68,-114.47 201.41,-118.49"/>
</g>
<!-- 4&#45;&gt;8 -->
<g id="edge27" class="edge">
<title>4&#45;&gt;8</title>
<path fill="none" stroke="black" d="M280.33,-221.7C286.73,-219.67 293.43,-217.66 299.77,-216 378.68,-195.29 403.16,-208.07 479.77,-180 527.39,-162.55 577.89,-132.5 609.37,-112.2"/>
<polygon fill="black" stroke="black" points="611.16,-115.2 617.62,-106.8 607.34,-109.34 611.16,-115.2"/>
</g>
<!-- 4&#45;&gt;9 -->
<g id="edge28" class="edge">
<title>4&#45;&gt;9</title>
<path fill="none" stroke="black" d="M280.38,-221.92C286.78,-219.86 293.47,-217.8 299.77,-216 364.45,-197.54 389.85,-215.84 446.77,-180 471.51,-164.42 491.81,-137.59 504.67,-117.45"/>
<polygon fill="black" stroke="black" points="507.49,-119.54 509.74,-109.19 501.52,-115.88 507.49,-119.54"/>
</g>
<!-- 4&#45;&gt;10 -->
<g id="edge29" class="edge">
<title>4&#45;&gt;10</title>
<path fill="none" stroke="black" d="M259.9,-216.43C277.91,-191.85 311.85,-145.51 333.05,-116.56"/>
<polygon fill="black" stroke="black" points="335.73,-118.82 338.82,-108.68 330.09,-114.68 335.73,-118.82"/>
</g>
<!-- 5&#45;&gt;1 -->
<g id="edge30" class="edge">
<title>5&#45;&gt;1</title>
<path fill="none" stroke="black" d="M365.28,-216.41C372.36,-207.71 381.18,-196.89 389.01,-187.26"/>
<polygon fill="black" stroke="black" points="391.58,-189.65 395.18,-179.68 386.15,-185.23 391.58,-189.65"/>
</g>
<!-- 5&#45;&gt;6 -->
<g id="edge31" class="edge">
<title>5&#45;&gt;6</title>
<path fill="none" stroke="black" d="M319.54,-221.58C313.05,-219.53 306.23,-217.56 299.77,-216 200.03,-191.98 148.08,-248.57 71.77,-180 55.01,-164.94 49.43,-139.53 47.79,-119.71"/>
<polygon fill="black" stroke="black" points="51.29,-119.55 47.3,-109.74 44.3,-119.9 51.29,-119.55"/>
</g>
<!-- 5&#45;&gt;7 -->
<g id="edge32" class="edge">
<title>5&#45;&gt;7</title>
<path fill="none" stroke="black" d="M319.5,-221.67C283.55,-208.73 229.65,-188.29 223.77,-180 211.44,-162.63 210.92,-138.21 213.08,-119.34"/>
<polygon fill="black" stroke="black" points="216.51,-120.05 214.52,-109.65 209.59,-119.03 216.51,-120.05"/>
</g>
<!-- 5&#45;&gt;8 -->
<g id="edge33" class="edge">
<title>5&#45;&gt;8</title>
<path fill="none" stroke="black" d="M390.26,-225.47C406.19,-222.42 424.85,-218.93 441.77,-216 492.31,-207.24 636.45,-219 669.77,-180 685.05,-162.11 673.78,-136 661.09,-116.68"/>
<polygon fill="black" stroke="black" points="663.96,-114.67 655.34,-108.51 658.24,-118.7 663.96,-114.67"/>
</g>
<!-- 5&#45;&gt;9 -->
<g id="edge34" class="edge">
<title>5&#45;&gt;9</title>
<path fill="none" stroke="black" d="M390.5,-225.58C446.77,-214.4 545.58,-193.17 555.77,-180 570.58,-160.85 557,-134.78 542.47,-115.81"/>
<polygon fill="black" stroke="black" points="545.38,-113.84 536.34,-108.3 539.96,-118.26 545.38,-113.84"/>
</g>
<!-- 5&#45;&gt;10 -->
<g id="edge35" class="edge">
<title>5&#45;&gt;10</title>
<path fill="none" stroke="black" d="M351.77,-215.59C351.77,-191.61 351.77,-148.14 351.77,-119.42"/>
<polygon fill="black" stroke="black" points="355.27,-119.62 351.77,-109.62 348.27,-119.62 355.27,-119.62"/>
</g>
<!-- 7&#45;&gt;11 -->
<g id="edge36" class="edge">
<title>7&#45;&gt;11</title>
<path fill="none" stroke="black" d="M247.85,-79.12C284.54,-66.65 347.7,-45.19 387.79,-31.56"/>
<polygon fill="black" stroke="black" points="388.67,-34.96 397.02,-28.43 386.42,-28.33 388.67,-34.96"/>
</g>
<!-- 8&#45;&gt;11 -->
<g id="edge37" class="edge">
<title>8&#45;&gt;11</title>
<path fill="none" stroke="black" d="M607.02,-78.06C567.76,-65.34 503.12,-44.39 462.31,-31.17"/>
<polygon fill="black" stroke="black" points="463.5,-27.87 452.91,-28.12 461.34,-34.53 463.5,-27.87"/>
</g>
<!-- 9&#45;&gt;11 -->
<g id="edge38" class="edge">
<title>9&#45;&gt;11</title>
<path fill="none" stroke="black" d="M499.16,-73.81C485.55,-63.78 467.55,-50.52 452.66,-39.55"/>
<polygon fill="black" stroke="black" points="454.76,-36.75 444.63,-33.63 450.6,-42.38 454.76,-36.75"/>
</g>
<!-- 10&#45;&gt;11 -->
<g id="edge39" class="edge">
<title>10&#45;&gt;11</title>
<path fill="none" stroke="black" d="M368.33,-73.12C378.03,-63.82 390.42,-51.93 401.13,-41.67"/>
<polygon fill="black" stroke="black" points="403.38,-44.36 408.18,-34.91 398.54,-39.31 403.38,-44.36"/>
</g>
</g>
</svg>
