<svg xmlns="http://www.w3.org/2000/svg" xmlns:xlink="http://www.w3.org/1999/xlink" contentStyleType="text/css" data-diagram-type="SEQUENCE" height="660px" preserveAspectRatio="none" style="width:817px;height:660px;background:#FFFFFF;" version="1.1" viewBox="0 0 817 660" width="817px" zoomAndPan="magnify"><title>Graph Serialization Flow</title><defs/><g><text fill="#000000" font-family="sans-serif" font-size="14" font-weight="bold" lengthAdjust="spacing" textLength="169.2594" x="330.9595" y="29.9659">Graph Serialization Flow</text><g><title>Program</title><rect fill="#FFFFFF" height="400.7662" style="stroke:#181818;stroke-width:1;" width="10" x="162.125" y="157.8419"/></g><g><title>PackageInspector</title><rect fill="#FFFFFF" height="76.412" style="stroke:#181818;stroke-width:1;" width="10" x="354.9512" y="189.5479"/></g><g><title>Graph</title><rect fill="#FFFFFF" height="76.412" style="stroke:#181818;stroke-width:1;" width="10" x="512.7112" y="297.6659"/></g><g><title>GraphvizAlgorithm</title><rect fill="#FFFFFF" height="121.118" style="stroke:#181818;stroke-width:1;" width="10" x="696.2634" y="405.784"/></g><g><title>User</title><rect fill="#000000" fill-opacity="0.00000" height="452.4722" width="8" x="19.3089" y="124.1358"/><line style="stroke:#181818;stroke-width:0.5;stroke-dasharray:5.0,5.0;" x1="23" x2="23" y1="124.1358" y2="576.608"/></g><g><title>Program</title><rect fill="#000000" fill-opacity="0.00000" height="452.4722" width="8" x="163.125" y="124.1358"/><line style="stroke:#181818;stroke-width:0.5;stroke-dasharray:5.0,5.0;" x1="167.0961" x2="167.0961" y1="124.1358" y2="576.608"/></g><g><title>PackageInspector</title><rect fill="#000000" fill-opacity="0.00000" height="452.4722" width="8" x="355.9512" y="124.1358"/><line style="stroke:#181818;stroke-width:0.5;stroke-dasharray:5.0,5.0;" x1="359.1934" x2="359.1934" y1="124.1358" y2="576.608"/></g><g><title>Graph</title><rect fill="#000000" fill-opacity="0.00000" height="452.4722" width="8" x="513.7112" y="124.1358"/><line style="stroke:#181818;stroke-width:0.5;stroke-dasharray:5.0,5.0;" x1="517.1663" x2="517.1663" y1="124.1358" y2="576.608"/></g><g><title>GraphvizAlgorithm</title><rect fill="#000000" fill-opacity="0.00000" height="452.4722" width="8" x="697.2634" y="124.1358"/><line style="stroke:#181818;stroke-width:0.5;stroke-dasharray:5.0,5.0;" x1="701.1526" x2="701.1526" y1="124.1358" y2="576.608"/></g><g class="participant participant-head" data-participant="User"><text fill="#000000" font-family="sans-serif" font-size="14" lengthAdjust="spacing" textLength="30.6179" x="5" y="120.0339">User</text><ellipse cx="23.3089" cy="53.5679" fill="#E2E2F0" rx="8" ry="8" style="stroke:#181818;stroke-width:0.5;"/><path d="M23.3089,61.5679 L23.3089,88.5679 M10.3089,69.5679 L36.3089,69.5679 M23.3089,88.5679 L10.3089,103.5679 M23.3089,88.5679 L36.3089,103.5679" fill="none" style="stroke:#181818;stroke-width:0.5;"/></g><g class="participant participant-tail" data-participant="User"><text fill="#000000" font-family="sans-serif" font-size="14" lengthAdjust="spacing" textLength="30.6179" x="5" y="590.574">User</text><ellipse cx="23.3089" cy="603.1759" fill="#E2E2F0" rx="8" ry="8" style="stroke:#181818;stroke-width:0.5;"/><path d="M23.3089,611.1759 L23.3089,638.1759 M10.3089,619.1759 L36.3089,619.1759 M23.3089,638.1759 L10.3089,653.1759 M23.3089,638.1759 L36.3089,653.1759" fill="none" style="stroke:#181818;stroke-width:0.5;"/></g><g class="participant participant-head" data-participant="Main"><rect fill="#E2E2F0" height="33.0679" rx="2.5" ry="2.5" style="stroke:#181818;stroke-width:0.5;" width="72.0578" x="131.0961" y="90.0679"/><text fill="#000000" font-family="sans-serif" font-size="14" lengthAdjust="spacing" textLength="58.0578" x="138.0961" y="112.0339">Program</text></g><g class="participant participant-tail" data-participant="Main"><rect fill="#E2E2F0" height="33.0679" rx="2.5" ry="2.5" style="stroke:#181818;stroke-width:0.5;" width="72.0578" x="131.0961" y="575.608"/><text fill="#000000" font-family="sans-serif" font-size="14" lengthAdjust="spacing" textLength="58.0578" x="138.0961" y="597.574">Program</text></g><g class="participant participant-head" data-participant="Inspector"><rect fill="#E2E2F0" height="33.0679" rx="2.5" ry="2.5" style="stroke:#181818;stroke-width:0.5;" width="131.5156" x="294.1934" y="90.0679"/><text fill="#000000" font-family="sans-serif" font-size="14" lengthAdjust="spacing" textLength="117.5156" x="301.1934" y="112.0339">PackageInspector</text></g><g class="participant participant-tail" data-participant="Inspector"><rect fill="#E2E2F0" height="33.0679" rx="2.5" ry="2.5" style="stroke:#181818;stroke-width:0.5;" width="131.5156" x="294.1934" y="575.608"/><text fill="#000000" font-family="sans-serif" font-size="14" lengthAdjust="spacing" textLength="117.5156" x="301.1934" y="597.574">PackageInspector</text></g><g class="participant participant-head" data-participant="Graph"><rect fill="#E2E2F0" height="33.0679" rx="2.5" ry="2.5" style="stroke:#181818;stroke-width:0.5;" width="55.0898" x="490.1663" y="90.0679"/><text fill="#000000" font-family="sans-serif" font-size="14" lengthAdjust="spacing" textLength="41.0898" x="497.1663" y="112.0339">Graph</text></g><g class="participant participant-tail" data-participant="Graph"><rect fill="#E2E2F0" height="33.0679" rx="2.5" ry="2.5" style="stroke:#181818;stroke-width:0.5;" width="55.0898" x="490.1663" y="575.608"/><text fill="#000000" font-family="sans-serif" font-size="14" lengthAdjust="spacing" textLength="41.0898" x="497.1663" y="597.574">Graph</text></g><g class="participant participant-head" data-participant="Graphviz"><rect fill="#E2E2F0" height="33.0679" rx="2.5" ry="2.5" style="stroke:#181818;stroke-width:0.5;" width="138.2215" x="632.1526" y="90.0679"/><text fill="#000000" font-family="sans-serif" font-size="14" lengthAdjust="spacing" textLength="124.2215" x="639.1526" y="112.0339">GraphvizAlgorithm</text></g><g class="participant participant-tail" data-participant="Graphviz"><rect fill="#E2E2F0" height="33.0679" rx="2.5" ry="2.5" style="stroke:#181818;stroke-width:0.5;" width="138.2215" x="632.1526" y="575.608"/><text fill="#000000" font-family="sans-serif" font-size="14" lengthAdjust="spacing" textLength="124.2215" x="639.1526" y="597.574">GraphvizAlgorithm</text></g><g><title>Program</title><rect fill="#FFFFFF" height="400.7662" style="stroke:#181818;stroke-width:1;" width="10" x="162.125" y="157.8419"/></g><g><title>PackageInspector</title><rect fill="#FFFFFF" height="76.412" style="stroke:#181818;stroke-width:1;" width="10" x="354.9512" y="189.5479"/></g><g><title>Graph</title><rect fill="#FFFFFF" height="76.412" style="stroke:#181818;stroke-width:1;" width="10" x="512.7112" y="297.6659"/></g><g><title>GraphvizAlgorithm</title><rect fill="#FFFFFF" height="121.118" style="stroke:#181818;stroke-width:1;" width="10" x="696.2634" y="405.784"/></g><g class="message" data-participant-1="User" data-participant-2="Main"><polygon fill="#181818" points="150.125,153.8419,160.125,157.8419,150.125,161.8419,154.125,157.8419" style="stroke:#181818;stroke-width:1;"/><line style="stroke:#181818;stroke-width:1;" x1="23.3089" x2="156.125" y1="157.8419" y2="157.8419"/><text fill="#000000" font-family="sans-serif" font-size="13" lengthAdjust="spacing" textLength="90.7011" x="30.3089" y="152.0328">Serialize graph</text></g><g class="message" data-participant-1="Main" data-participant-2="Inspector"><polygon fill="#181818" points="342.9512,185.5479,352.9512,189.5479,342.9512,193.5479,346.9512,189.5479" style="stroke:#181818;stroke-width:1;"/><line style="stroke:#181818;stroke-width:1;" x1="172.125" x2="348.9512" y1="189.5479" y2="189.5479"/><text fill="#000000" font-family="sans-serif" font-size="13" lengthAdjust="spacing" textLength="163.8261" x="179.125" y="183.7389">new PackageInspector(DB)</text></g><g class="message" data-participant-1="Inspector" data-participant-2="Inspector"><line style="stroke:#181818;stroke-width:1;" x1="364.9512" x2="406.9512" y1="221.2539" y2="221.2539"/><line style="stroke:#181818;stroke-width:1;" x1="406.9512" x2="406.9512" y1="221.2539" y2="234.2539"/><line style="stroke:#181818;stroke-width:1;" x1="365.9512" x2="406.9512" y1="234.2539" y2="234.2539"/><polygon fill="#181818" points="375.9512,230.2539,365.9512,234.2539,375.9512,238.2539,371.9512,234.2539" style="stroke:#181818;stroke-width:1;"/><text fill="#000000" font-family="sans-serif" font-size="13" lengthAdjust="spacing" textLength="123.7601" x="371.9512" y="215.4449">Gather package info</text></g><g class="message" data-participant-1="Inspector" data-participant-2="Main"><polygon fill="#181818" points="183.125,261.9599,173.125,265.9599,183.125,269.9599,179.125,265.9599" style="stroke:#181818;stroke-width:1;"/><line style="stroke:#181818;stroke-width:1;stroke-dasharray:2.0,2.0;" x1="177.125" x2="358.9512" y1="265.9599" y2="265.9599"/><text fill="#000000" font-family="sans-serif" font-size="13" lengthAdjust="spacing" textLength="94.5881" x="189.125" y="260.1509">Package details</text></g><g class="message" data-participant-1="Main" data-participant-2="Graph"><polygon fill="#181818" points="500.7112,293.6659,510.7112,297.6659,500.7112,301.6659,504.7112,297.6659" style="stroke:#181818;stroke-width:1;"/><line style="stroke:#181818;stroke-width:1;" x1="172.125" x2="506.7112" y1="297.6659" y2="297.6659"/><text fill="#000000" font-family="sans-serif" font-size="13" lengthAdjust="spacing" textLength="153.8161" x="179.125" y="291.8569">BuildFor(packages, table)</text></g><g class="message" data-participant-1="Graph" data-participant-2="Graph"><line style="stroke:#181818;stroke-width:1;" x1="522.7112" x2="564.7112" y1="329.3719" y2="329.3719"/><line style="stroke:#181818;stroke-width:1;" x1="564.7112" x2="564.7112" y1="329.3719" y2="342.3719"/><line style="stroke:#181818;stroke-width:1;" x1="523.7112" x2="564.7112" y1="342.3719" y2="342.3719"/><polygon fill="#181818" points="533.7112,338.3719,523.7112,342.3719,533.7112,346.3719,529.7112,342.3719" style="stroke:#181818;stroke-width:1;"/><text fill="#000000" font-family="sans-serif" font-size="13" lengthAdjust="spacing" textLength="149.5522" x="529.7112" y="323.5629">Build dependency graph</text></g><g class="message" data-participant-1="Graph" data-participant-2="Main"><polygon fill="#181818" points="183.125,370.0779,173.125,374.0779,183.125,378.0779,179.125,374.0779" style="stroke:#181818;stroke-width:1;"/><line style="stroke:#181818;stroke-width:1;stroke-dasharray:2.0,2.0;" x1="177.125" x2="516.7112" y1="374.0779" y2="374.0779"/><text fill="#000000" font-family="sans-serif" font-size="13" lengthAdjust="spacing" textLength="116.4801" x="189.125" y="368.2689">Dependency graph</text></g><g class="message" data-participant-1="Main" data-participant-2="Graphviz"><polygon fill="#181818" points="684.2634,401.784,694.2634,405.784,684.2634,409.784,688.2634,405.784" style="stroke:#181818;stroke-width:1;"/><line style="stroke:#181818;stroke-width:1;" x1="172.125" x2="690.2634" y1="405.784" y2="405.784"/><text fill="#000000" font-family="sans-serif" font-size="13" lengthAdjust="spacing" textLength="188.7992" x="179.125" y="399.975">new GraphvizAlgorithm(graph)</text></g><g class="message" data-participant-1="Graphviz" data-participant-2="Graphviz"><line style="stroke:#181818;stroke-width:1;" x1="706.2634" x2="748.2634" y1="437.49" y2="437.49"/><line style="stroke:#181818;stroke-width:1;" x1="748.2634" x2="748.2634" y1="437.49" y2="450.49"/><line style="stroke:#181818;stroke-width:1;" x1="707.2634" x2="748.2634" y1="450.49" y2="450.49"/><polygon fill="#181818" points="717.2634,446.49,707.2634,450.49,717.2634,454.49,713.2634,450.49" style="stroke:#181818;stroke-width:1;"/><text fill="#000000" font-family="sans-serif" font-size="13" lengthAdjust="spacing" textLength="94.6531" x="713.2634" y="431.681">Format vertices</text></g><g class="message" data-participant-1="Graphviz" data-participant-2="Graphviz"><line style="stroke:#181818;stroke-width:1;" x1="706.2634" x2="748.2634" y1="482.196" y2="482.196"/><line style="stroke:#181818;stroke-width:1;" x1="748.2634" x2="748.2634" y1="482.196" y2="495.196"/><line style="stroke:#181818;stroke-width:1;" x1="707.2634" x2="748.2634" y1="495.196" y2="495.196"/><polygon fill="#181818" points="717.2634,491.196,707.2634,495.196,717.2634,499.196,713.2634,495.196" style="stroke:#181818;stroke-width:1;"/><text fill="#000000" font-family="sans-serif" font-size="13" lengthAdjust="spacing" textLength="96.9151" x="713.2634" y="476.387">Generate graph</text></g><g class="message" data-participant-1="Graphviz" data-participant-2="Main"><polygon fill="#181818" points="183.125,522.902,173.125,526.902,183.125,530.902,179.125,526.902" style="stroke:#181818;stroke-width:1;"/><line style="stroke:#181818;stroke-width:1;stroke-dasharray:2.0,2.0;" x1="177.125" x2="700.2634" y1="526.902" y2="526.902"/><text fill="#000000" font-family="sans-serif" font-size="13" lengthAdjust="spacing" textLength="99.2551" x="189.125" y="521.093">Graph serialized</text></g><g class="message" data-participant-1="Main" data-participant-2="User"><polygon fill="#181818" points="34.3089,554.608,24.3089,558.608,34.3089,562.608,30.3089,558.608" style="stroke:#181818;stroke-width:1;"/><line style="stroke:#181818;stroke-width:1;stroke-dasharray:2.0,2.0;" x1="28.3089" x2="166.125" y1="558.608" y2="558.608"/><text fill="#000000" font-family="sans-serif" font-size="13" lengthAdjust="spacing" textLength="114.8161" x="40.3089" y="552.799">Graph saved to file</text></g><!--SRC=[TP9DQiCm48NtEiMGLGhj1RmeD8I4BWg5qWDCxOapL96CD7LeJb_zEF9FqesHxJTllZSZOT44UuVT4Jx8CMg-eB0riDFsh1JMOXryUdAgGoTSSuT6OFNkRElmj0Bqy8Pi5d-n_iQMNetlA1eaMNcRQrFl94YdEpzxlhperZgMusaKXgzAHJ1uUau8LGb0q2Qh0Cyz2cL25PzHN40gC7I69UnwktaOIqVgSbfux56EWQBBDi3cOAVQGZVqWOO4MNlLq9qc1J9bh63pmxhP1QZ1tZ-2u9Uc2M4UMrxXeZ3qwiWqPEhVOII3h41jbu89LJQU4uMfvwdTR6QTwfTSSKlNmzmaX3gXG4zntUJ_KUt9a8jk4_maAWbo8dzTVNEJ85sK728KnHjJYh2d1iJ2WJLDwz9z-GC0]--></g></svg>