<svg xmlns="http://www.w3.org/2000/svg" xmlns:xlink="http://www.w3.org/1999/xlink" contentStyleType="text/css" data-diagram-type="SEQUENCE" height="539px" preserveAspectRatio="none" style="width:596px;height:539px;background:#FFFFFF;" version="1.1" viewBox="0 0 596 539" width="596px" zoomAndPan="magnify"><title>Package Search Flow</title><defs/><g><text fill="#000000" font-family="sans-serif" font-size="14" font-weight="bold" lengthAdjust="spacing" textLength="145.4874" x="224.3207" y="29.9659">Package Search Flow</text><g><title>Program</title><rect fill="#FFFFFF" height="279.6481" style="stroke:#181818;stroke-width:1;" width="10" x="173.227" y="157.8419"/></g><g><title>RpcEngine</title><rect fill="#FFFFFF" height="171.5301" style="stroke:#181818;stroke-width:1;" width="10" x="302.5221" y="189.5479"/></g><g><title>User</title><rect fill="#000000" fill-opacity="0.00000" height="331.3541" width="8" x="19.3089" y="124.1358"/><line style="stroke:#181818;stroke-width:0.5;stroke-dasharray:5.0,5.0;" x1="23" x2="23" y1="124.1358" y2="455.49"/></g><g><title>Program</title><rect fill="#000000" fill-opacity="0.00000" height="331.3541" width="8" x="174.227" y="124.1358"/><line style="stroke:#181818;stroke-width:0.5;stroke-dasharray:5.0,5.0;" x1="178.1981" x2="178.1981" y1="124.1358" y2="455.49"/></g><g><title>RpcEngine</title><rect fill="#000000" fill-opacity="0.00000" height="331.3541" width="8" x="303.5221" y="124.1358"/><line style="stroke:#181818;stroke-width:0.5;stroke-dasharray:5.0,5.0;" x1="306.9003" x2="306.9003" y1="124.1358" y2="455.49"/></g><g><title>SearchResult</title><rect fill="#000000" fill-opacity="0.00000" height="331.3541" width="8" x="458.8302" y="124.1358"/><line style="stroke:#181818;stroke-width:0.5;stroke-dasharray:5.0,5.0;" x1="462.2214" x2="462.2214" y1="124.1358" y2="455.49"/></g><g><title>AUR API</title><rect fill="#000000" fill-opacity="0.00000" height="331.3541" width="8" x="552.2839" y="124.1358"/><line style="stroke:#181818;stroke-width:0.5;stroke-dasharray:5.0,5.0;" x1="555.439" x2="555.439" y1="124.1358" y2="455.49"/></g><g class="participant participant-head" data-participant="User"><text fill="#000000" font-family="sans-serif" font-size="14" lengthAdjust="spacing" textLength="30.6179" x="5" y="120.0339">User</text><ellipse cx="23.3089" cy="53.5679" fill="#E2E2F0" rx="8" ry="8" style="stroke:#181818;stroke-width:0.5;"/><path d="M23.3089,61.5679 L23.3089,88.5679 M10.3089,69.5679 L36.3089,69.5679 M23.3089,88.5679 L10.3089,103.5679 M23.3089,88.5679 L36.3089,103.5679" fill="none" style="stroke:#181818;stroke-width:0.5;"/></g><g class="participant participant-tail" data-participant="User"><text fill="#000000" font-family="sans-serif" font-size="14" lengthAdjust="spacing" textLength="30.6179" x="5" y="469.4559">User</text><ellipse cx="23.3089" cy="482.0579" fill="#E2E2F0" rx="8" ry="8" style="stroke:#181818;stroke-width:0.5;"/><path d="M23.3089,490.0579 L23.3089,517.0579 M10.3089,498.0579 L36.3089,498.0579 M23.3089,517.0579 L10.3089,532.0579 M23.3089,517.0579 L36.3089,532.0579" fill="none" style="stroke:#181818;stroke-width:0.5;"/></g><g class="participant participant-head" data-participant="Main"><rect fill="#E2E2F0" height="33.0679" rx="2.5" ry="2.5" style="stroke:#181818;stroke-width:0.5;" width="72.0578" x="142.1981" y="90.0679"/><text fill="#000000" font-family="sans-serif" font-size="14" lengthAdjust="spacing" textLength="58.0578" x="149.1981" y="112.0339">Program</text></g><g class="participant participant-tail" data-participant="Main"><rect fill="#E2E2F0" height="33.0679" rx="2.5" ry="2.5" style="stroke:#181818;stroke-width:0.5;" width="72.0578" x="142.1981" y="454.49"/><text fill="#000000" font-family="sans-serif" font-size="14" lengthAdjust="spacing" textLength="58.0578" x="149.1981" y="476.4559">Program</text></g><g class="participant participant-head" data-participant="RPC"><rect fill="#E2E2F0" height="33.0679" rx="2.5" ry="2.5" style="stroke:#181818;stroke-width:0.5;" width="83.2437" x="265.9003" y="90.0679"/><text fill="#000000" font-family="sans-serif" font-size="14" lengthAdjust="spacing" textLength="69.2437" x="272.9003" y="112.0339">RpcEngine</text></g><g class="participant participant-tail" data-participant="RPC"><rect fill="#E2E2F0" height="33.0679" rx="2.5" ry="2.5" style="stroke:#181818;stroke-width:0.5;" width="83.2437" x="265.9003" y="454.49"/><text fill="#000000" font-family="sans-serif" font-size="14" lengthAdjust="spacing" textLength="69.2437" x="272.9003" y="476.4559">RpcEngine</text></g><g class="participant participant-head" data-participant="Result"><rect fill="#E2E2F0" height="33.0679" rx="2.5" ry="2.5" style="stroke:#181818;stroke-width:0.5;" width="99.2177" x="413.2214" y="90.0679"/><text fill="#000000" font-family="sans-serif" font-size="14" lengthAdjust="spacing" textLength="85.2177" x="420.2214" y="112.0339">SearchResult</text></g><g class="participant participant-tail" data-participant="Result"><rect fill="#E2E2F0" height="33.0679" rx="2.5" ry="2.5" style="stroke:#181818;stroke-width:0.5;" width="99.2177" x="413.2214" y="454.49"/><text fill="#000000" font-family="sans-serif" font-size="14" lengthAdjust="spacing" textLength="85.2177" x="420.2214" y="476.4559">SearchResult</text></g><g class="participant participant-head" data-participant="AUR API"><rect fill="#E2E2F0" height="33.0679" rx="2.5" ry="2.5" style="stroke:#181818;stroke-width:0.5;" width="67.6898" x="522.439" y="90.0679"/><text fill="#000000" font-family="sans-serif" font-size="14" lengthAdjust="spacing" textLength="53.6898" x="529.439" y="112.0339">AUR API</text></g><g class="participant participant-tail" data-participant="AUR API"><rect fill="#E2E2F0" height="33.0679" rx="2.5" ry="2.5" style="stroke:#181818;stroke-width:0.5;" width="67.6898" x="522.439" y="454.49"/><text fill="#000000" font-family="sans-serif" font-size="14" lengthAdjust="spacing" textLength="53.6898" x="529.439" y="476.4559">AUR API</text></g><g><title>Program</title><rect fill="#FFFFFF" height="279.6481" style="stroke:#181818;stroke-width:1;" width="10" x="173.227" y="157.8419"/></g><g><title>RpcEngine</title><rect fill="#FFFFFF" height="171.5301" style="stroke:#181818;stroke-width:1;" width="10" x="302.5221" y="189.5479"/></g><g class="message" data-participant-1="User" data-participant-2="Main"><polygon fill="#181818" points="161.227,153.8419,171.227,157.8419,161.227,161.8419,165.227,157.8419" style="stroke:#181818;stroke-width:1;"/><line style="stroke:#181818;stroke-width:1;" x1="23.3089" x2="167.227" y1="157.8419" y2="157.8419"/><text fill="#000000" font-family="sans-serif" font-size="13" lengthAdjust="spacing" textLength="95.8751" x="30.3089" y="152.0328">Search package</text></g><g class="message" data-participant-1="Main" data-participant-2="RPC"><polygon fill="#181818" points="290.5221,185.5479,300.5221,189.5479,290.5221,193.5479,294.5221,189.5479" style="stroke:#181818;stroke-width:1;"/><line style="stroke:#181818;stroke-width:1;" x1="183.227" x2="296.5221" y1="189.5479" y2="189.5479"/><text fill="#000000" font-family="sans-serif" font-size="13" lengthAdjust="spacing" textLength="100.2951" x="190.227" y="183.7389">Search(package)</text></g><g class="message" data-participant-1="RPC" data-participant-2="RPC"><line style="stroke:#181818;stroke-width:1;" x1="312.5221" x2="354.5221" y1="221.2539" y2="221.2539"/><line style="stroke:#181818;stroke-width:1;" x1="354.5221" x2="354.5221" y1="221.2539" y2="234.2539"/><line style="stroke:#181818;stroke-width:1;" x1="313.5221" x2="354.5221" y1="234.2539" y2="234.2539"/><polygon fill="#181818" points="323.5221,230.2539,313.5221,234.2539,323.5221,238.2539,319.5221,234.2539" style="stroke:#181818;stroke-width:1;"/><text fill="#000000" font-family="sans-serif" font-size="13" lengthAdjust="spacing" textLength="117.4161" x="319.5221" y="215.4449">Construct URL args</text></g><g class="message" data-participant-1="RPC" data-participant-2="AUR API"><polygon fill="#181818" points="544.2839,261.9599,554.2839,265.9599,544.2839,269.9599,548.2839,265.9599" style="stroke:#181818;stroke-width:1;"/><line style="stroke:#181818;stroke-width:1;" x1="312.5221" x2="550.2839" y1="265.9599" y2="265.9599"/><text fill="#000000" font-family="sans-serif" font-size="13" lengthAdjust="spacing" textLength="74.2821" x="319.5221" y="260.1509">GET request</text></g><g class="message" data-participant-1="AUR API" data-participant-2="RPC"><polygon fill="#181818" points="323.5221,293.6659,313.5221,297.6659,323.5221,301.6659,319.5221,297.6659" style="stroke:#181818;stroke-width:1;"/><line style="stroke:#181818;stroke-width:1;stroke-dasharray:2.0,2.0;" x1="317.5221" x2="555.2839" y1="297.6659" y2="297.6659"/><text fill="#000000" font-family="sans-serif" font-size="13" lengthAdjust="spacing" textLength="90.4801" x="329.5221" y="291.8569">JSON response</text></g><g class="message" data-participant-1="RPC" data-participant-2="Result"><polygon fill="#181818" points="450.8302,325.3719,460.8302,329.3719,450.8302,333.3719,454.8302,329.3719" style="stroke:#181818;stroke-width:1;"/><line style="stroke:#181818;stroke-width:1;" x1="312.5221" x2="456.8302" y1="329.3719" y2="329.3719"/><text fill="#000000" font-family="sans-serif" font-size="13" lengthAdjust="spacing" textLength="126.3081" x="319.5221" y="323.5629">Deserialize response</text></g><g class="message" data-participant-1="RPC" data-participant-2="Main"><polygon fill="#181818" points="194.227,357.0779,184.227,361.0779,194.227,365.0779,190.227,361.0779" style="stroke:#181818;stroke-width:1;"/><line style="stroke:#181818;stroke-width:1;stroke-dasharray:2.0,2.0;" x1="188.227" x2="306.5221" y1="361.0779" y2="361.0779"/><text fill="#000000" font-family="sans-serif" font-size="13" lengthAdjust="spacing" textLength="79.1311" x="200.227" y="355.2689">SearchResult</text></g><g class="message" data-participant-1="Main" data-participant-2="Main"><line style="stroke:#181818;stroke-width:1;" x1="183.227" x2="225.227" y1="392.784" y2="392.784"/><line style="stroke:#181818;stroke-width:1;" x1="225.227" x2="225.227" y1="392.784" y2="405.784"/><line style="stroke:#181818;stroke-width:1;" x1="184.227" x2="225.227" y1="405.784" y2="405.784"/><polygon fill="#181818" points="194.227,401.784,184.227,405.784,194.227,409.784,190.227,405.784" style="stroke:#181818;stroke-width:1;"/><text fill="#000000" font-family="sans-serif" font-size="13" lengthAdjust="spacing" textLength="91.7411" x="190.227" y="386.975">Process results</text></g><g class="message" data-participant-1="Main" data-participant-2="User"><polygon fill="#181818" points="34.3089,433.49,24.3089,437.49,34.3089,441.49,30.3089,437.49" style="stroke:#181818;stroke-width:1;"/><line style="stroke:#181818;stroke-width:1;stroke-dasharray:2.0,2.0;" x1="28.3089" x2="177.227" y1="437.49" y2="437.49"/><text fill="#000000" font-family="sans-serif" font-size="13" lengthAdjust="spacing" textLength="125.9181" x="40.3089" y="431.681">Display package info</text></g><!--SRC=[NP3TJiGW48NlUOf9h_HYNw0NcspMrMZyQLZx01CSAv45PAX6drwWfTgzW13EbtFcJDJH47Ietd4WE186zGRNndq9WIgw03rJ41v3r4fxj16QBhWXuAa1P7X0RTUgzEfW1ssfwBBRh-KfGHAF9av4UGgHSs2pBOvj7SHFS-LHz2T6cl94lZERt2jwCQENVspEJcS1zyvo3AEAqCjxm31mbPjTBs7NtJOjt1oU8T37I1p5yWsRwd5tV7fCEllaHOjxgT325QKE6et-eJFchDVS-OLMiowr9ZIjMH5pTaempsgIywPIc6PlyBkk2BHzTVyTowP-0G00]--></g></svg>