<svg xmlns="http://www.w3.org/2000/svg" xmlns:xlink="http://www.w3.org/1999/xlink" contentStyleType="text/css" data-diagram-type="SEQUENCE" height="831px" preserveAspectRatio="none" style="width:1035px;height:831px;background:#FFFFFF;" version="1.1" viewBox="0 0 1035 831" width="1035px" zoomAndPan="magnify"><title>Package Installation Flow</title><defs/><g><text fill="#000000" font-family="sans-serif" font-size="14" font-weight="bold" lengthAdjust="spacing" textLength="179.3253" x="435.1742" y="29.9659">Package Installation Flow</text><g><title>Program</title><rect fill="#FFFFFF" height="572.2963" style="stroke:#181818;stroke-width:1;" width="10" x="176.2561" y="157.8419"/></g><g><title>RpcEngine</title><rect fill="#FFFFFF" height="31.706" style="stroke:#181818;stroke-width:1;" width="10" x="295.1511" y="189.5479"/></g><g><title>PackageInspector</title><rect fill="#FFFFFF" height="76.412" style="stroke:#181818;stroke-width:1;" width="10" x="412.5308" y="252.9599"/></g><g><title>Graph</title><rect fill="#FFFFFF" height="121.118" style="stroke:#181818;stroke-width:1;" width="10" x="570.2908" y="361.0779"/></g><g><title>ShellRunner</title><rect fill="#FFFFFF" height="76.412" style="stroke:#181818;stroke-width:1;" width="10" x="881.8556" y="513.902"/></g><g><title>ShellRunner</title><rect fill="#FFFFFF" height="76.412" style="stroke:#181818;stroke-width:1;" width="10" x="881.8556" y="622.0201"/></g><g><title>User</title><rect fill="#000000" fill-opacity="0.00000" height="624.0023" width="8" x="19.3089" y="124.1358"/><line style="stroke:#181818;stroke-width:0.5;stroke-dasharray:5.0,5.0;" x1="23" x2="23" y1="124.1358" y2="748.1381"/></g><g><title>Program</title><rect fill="#000000" fill-opacity="0.00000" height="624.0023" width="8" x="177.2561" y="124.1358"/><line style="stroke:#181818;stroke-width:0.5;stroke-dasharray:5.0,5.0;" x1="181.2272" x2="181.2272" y1="124.1358" y2="748.1381"/></g><g><title>RpcEngine</title><rect fill="#000000" fill-opacity="0.00000" height="624.0023" width="8" x="296.1511" y="124.1358"/><line style="stroke:#181818;stroke-width:0.5;stroke-dasharray:5.0,5.0;" x1="299.5293" x2="299.5293" y1="124.1358" y2="748.1381"/></g><g><title>PackageInspector</title><rect fill="#000000" fill-opacity="0.00000" height="624.0023" width="8" x="413.5308" y="124.1358"/><line style="stroke:#181818;stroke-width:0.5;stroke-dasharray:5.0,5.0;" x1="416.773" x2="416.773" y1="124.1358" y2="748.1381"/></g><g><title>Graph</title><rect fill="#000000" fill-opacity="0.00000" height="624.0023" width="8" x="571.2908" y="124.1358"/><line style="stroke:#181818;stroke-width:0.5;stroke-dasharray:5.0,5.0;" x1="574.7459" x2="574.7459" y1="124.1358" y2="748.1381"/></g><g><title>DatabaseController</title><rect fill="#000000" fill-opacity="0.00000" height="624.0023" width="8" x="754.843" y="124.1358"/><line style="stroke:#181818;stroke-width:0.5;stroke-dasharray:5.0,5.0;" x1="758.7302" x2="758.7302" y1="124.1358" y2="748.1381"/></g><g><title>ShellRunner</title><rect fill="#000000" fill-opacity="0.00000" height="624.0023" width="8" x="882.8556" y="124.1358"/><line style="stroke:#181818;stroke-width:0.5;stroke-dasharray:5.0,5.0;" x1="885.9558" x2="885.9558" y1="124.1358" y2="748.1381"/></g><g class="participant participant-head" data-participant="User"><text fill="#000000" font-family="sans-serif" font-size="14" lengthAdjust="spacing" textLength="30.6179" x="5" y="120.0339">User</text><ellipse cx="23.3089" cy="53.5679" fill="#E2E2F0" rx="8" ry="8" style="stroke:#181818;stroke-width:0.5;"/><path d="M23.3089,61.5679 L23.3089,88.5679 M10.3089,69.5679 L36.3089,69.5679 M23.3089,88.5679 L10.3089,103.5679 M23.3089,88.5679 L36.3089,103.5679" fill="none" style="stroke:#181818;stroke-width:0.5;"/></g><g class="participant participant-tail" data-participant="User"><text fill="#000000" font-family="sans-serif" font-size="14" lengthAdjust="spacing" textLength="30.6179" x="5" y="762.104">User</text><ellipse cx="23.3089" cy="774.706" fill="#E2E2F0" rx="8" ry="8" style="stroke:#181818;stroke-width:0.5;"/><path d="M23.3089,782.706 L23.3089,809.706 M10.3089,790.706 L36.3089,790.706 M23.3089,809.706 L10.3089,824.706 M23.3089,809.706 L36.3089,824.706" fill="none" style="stroke:#181818;stroke-width:0.5;"/></g><g class="participant participant-head" data-participant="Main"><rect fill="#E2E2F0" height="33.0679" rx="2.5" ry="2.5" style="stroke:#181818;stroke-width:0.5;" width="72.0578" x="145.2272" y="90.0679"/><text fill="#000000" font-family="sans-serif" font-size="14" lengthAdjust="spacing" textLength="58.0578" x="152.2272" y="112.0339">Program</text></g><g class="participant participant-tail" data-participant="Main"><rect fill="#E2E2F0" height="33.0679" rx="2.5" ry="2.5" style="stroke:#181818;stroke-width:0.5;" width="72.0578" x="145.2272" y="747.1381"/><text fill="#000000" font-family="sans-serif" font-size="14" lengthAdjust="spacing" textLength="58.0578" x="152.2272" y="769.104">Program</text></g><g class="participant participant-head" data-participant="RPC"><rect fill="#E2E2F0" height="33.0679" rx="2.5" ry="2.5" style="stroke:#181818;stroke-width:0.5;" width="83.2437" x="258.5293" y="90.0679"/><text fill="#000000" font-family="sans-serif" font-size="14" lengthAdjust="spacing" textLength="69.2437" x="265.5293" y="112.0339">RpcEngine</text></g><g class="participant participant-tail" data-participant="RPC"><rect fill="#E2E2F0" height="33.0679" rx="2.5" ry="2.5" style="stroke:#181818;stroke-width:0.5;" width="83.2437" x="258.5293" y="747.1381"/><text fill="#000000" font-family="sans-serif" font-size="14" lengthAdjust="spacing" textLength="69.2437" x="265.5293" y="769.104">RpcEngine</text></g><g class="participant participant-head" data-participant="Inspector"><rect fill="#E2E2F0" height="33.0679" rx="2.5" ry="2.5" style="stroke:#181818;stroke-width:0.5;" width="131.5156" x="351.773" y="90.0679"/><text fill="#000000" font-family="sans-serif" font-size="14" lengthAdjust="spacing" textLength="117.5156" x="358.773" y="112.0339">PackageInspector</text></g><g class="participant participant-tail" data-participant="Inspector"><rect fill="#E2E2F0" height="33.0679" rx="2.5" ry="2.5" style="stroke:#181818;stroke-width:0.5;" width="131.5156" x="351.773" y="747.1381"/><text fill="#000000" font-family="sans-serif" font-size="14" lengthAdjust="spacing" textLength="117.5156" x="358.773" y="769.104">PackageInspector</text></g><g class="participant participant-head" data-participant="Graph"><rect fill="#E2E2F0" height="33.0679" rx="2.5" ry="2.5" style="stroke:#181818;stroke-width:0.5;" width="55.0898" x="547.7459" y="90.0679"/><text fill="#000000" font-family="sans-serif" font-size="14" lengthAdjust="spacing" textLength="41.0898" x="554.7459" y="112.0339">Graph</text></g><g class="participant participant-tail" data-participant="Graph"><rect fill="#E2E2F0" height="33.0679" rx="2.5" ry="2.5" style="stroke:#181818;stroke-width:0.5;" width="55.0898" x="547.7459" y="747.1381"/><text fill="#000000" font-family="sans-serif" font-size="14" lengthAdjust="spacing" textLength="41.0898" x="554.7459" y="769.104">Graph</text></g><g class="participant participant-head" data-participant="DB"><rect fill="#E2E2F0" height="33.0679" rx="2.5" ry="2.5" style="stroke:#181818;stroke-width:0.5;" width="142.2255" x="687.7302" y="90.0679"/><text fill="#000000" font-family="sans-serif" font-size="14" lengthAdjust="spacing" textLength="128.2255" x="694.7302" y="112.0339">DatabaseController</text></g><g class="participant participant-tail" data-participant="DB"><rect fill="#E2E2F0" height="33.0679" rx="2.5" ry="2.5" style="stroke:#181818;stroke-width:0.5;" width="142.2255" x="687.7302" y="747.1381"/><text fill="#000000" font-family="sans-serif" font-size="14" lengthAdjust="spacing" textLength="128.2255" x="694.7302" y="769.104">DatabaseController</text></g><g class="participant participant-head" data-participant="Shell"><rect fill="#E2E2F0" height="33.0679" rx="2.5" ry="2.5" style="stroke:#181818;stroke-width:0.5;" width="93.7997" x="839.9558" y="90.0679"/><text fill="#000000" font-family="sans-serif" font-size="14" lengthAdjust="spacing" textLength="79.7997" x="846.9558" y="112.0339">ShellRunner</text></g><g class="participant participant-tail" data-participant="Shell"><rect fill="#E2E2F0" height="33.0679" rx="2.5" ry="2.5" style="stroke:#181818;stroke-width:0.5;" width="93.7997" x="839.9558" y="747.1381"/><text fill="#000000" font-family="sans-serif" font-size="14" lengthAdjust="spacing" textLength="79.7997" x="846.9558" y="769.104">ShellRunner</text></g><g><title>Program</title><rect fill="#FFFFFF" height="572.2963" style="stroke:#181818;stroke-width:1;" width="10" x="176.2561" y="157.8419"/></g><g><title>RpcEngine</title><rect fill="#FFFFFF" height="31.706" style="stroke:#181818;stroke-width:1;" width="10" x="295.1511" y="189.5479"/></g><g><title>PackageInspector</title><rect fill="#FFFFFF" height="76.412" style="stroke:#181818;stroke-width:1;" width="10" x="412.5308" y="252.9599"/></g><g><title>Graph</title><rect fill="#FFFFFF" height="121.118" style="stroke:#181818;stroke-width:1;" width="10" x="570.2908" y="361.0779"/></g><g><title>ShellRunner</title><rect fill="#FFFFFF" height="76.412" style="stroke:#181818;stroke-width:1;" width="10" x="881.8556" y="513.902"/></g><g><title>ShellRunner</title><rect fill="#FFFFFF" height="76.412" style="stroke:#181818;stroke-width:1;" width="10" x="881.8556" y="622.0201"/></g><g class="message" data-participant-1="User" data-participant-2="Main"><polygon fill="#181818" points="164.2561,153.8419,174.2561,157.8419,164.2561,161.8419,168.2561,157.8419" style="stroke:#181818;stroke-width:1;"/><line style="stroke:#181818;stroke-width:1;" x1="23.3089" x2="170.2561" y1="157.8419" y2="157.8419"/><text fill="#000000" font-family="sans-serif" font-size="13" lengthAdjust="spacing" textLength="98.0591" x="30.3089" y="152.0328">Install packages</text></g><g class="message" data-participant-1="Main" data-participant-2="RPC"><polygon fill="#181818" points="283.1511,185.5479,293.1511,189.5479,283.1511,193.5479,287.1511,189.5479" style="stroke:#181818;stroke-width:1;"/><line style="stroke:#181818;stroke-width:1;" x1="186.2561" x2="289.1511" y1="189.5479" y2="189.5479"/><text fill="#000000" font-family="sans-serif" font-size="13" lengthAdjust="spacing" textLength="89.8951" x="193.2561" y="183.7389">Info(packages)</text></g><g class="message" data-participant-1="RPC" data-participant-2="Main"><polygon fill="#181818" points="197.2561,217.2539,187.2561,221.2539,197.2561,225.2539,193.2561,221.2539" style="stroke:#181818;stroke-width:1;"/><line style="stroke:#181818;stroke-width:1;stroke-dasharray:2.0,2.0;" x1="191.2561" x2="299.1511" y1="221.2539" y2="221.2539"/><text fill="#000000" font-family="sans-serif" font-size="13" lengthAdjust="spacing" textLength="78.065" x="203.2561" y="215.4449">Package info</text></g><g class="message" data-participant-1="Main" data-participant-2="Inspector"><polygon fill="#181818" points="400.5308,248.9599,410.5308,252.9599,400.5308,256.9599,404.5308,252.9599" style="stroke:#181818;stroke-width:1;"/><line style="stroke:#181818;stroke-width:1;" x1="186.2561" x2="406.5308" y1="252.9599" y2="252.9599"/><text fill="#000000" font-family="sans-serif" font-size="13" lengthAdjust="spacing" textLength="163.8261" x="193.2561" y="247.1509">new PackageInspector(DB)</text></g><g class="message" data-participant-1="Inspector" data-participant-2="Inspector"><line style="stroke:#181818;stroke-width:1;" x1="422.5308" x2="464.5308" y1="284.6659" y2="284.6659"/><line style="stroke:#181818;stroke-width:1;" x1="464.5308" x2="464.5308" y1="284.6659" y2="297.6659"/><line style="stroke:#181818;stroke-width:1;" x1="423.5308" x2="464.5308" y1="297.6659" y2="297.6659"/><polygon fill="#181818" points="433.5308,293.6659,423.5308,297.6659,433.5308,301.6659,429.5308,297.6659" style="stroke:#181818;stroke-width:1;"/><text fill="#000000" font-family="sans-serif" font-size="13" lengthAdjust="spacing" textLength="123.7601" x="429.5308" y="278.8569">Gather package info</text></g><g class="message" data-participant-1="Inspector" data-participant-2="Main"><polygon fill="#181818" points="197.2561,325.3719,187.2561,329.3719,197.2561,333.3719,193.2561,329.3719" style="stroke:#181818;stroke-width:1;"/><line style="stroke:#181818;stroke-width:1;stroke-dasharray:2.0,2.0;" x1="191.2561" x2="416.5308" y1="329.3719" y2="329.3719"/><text fill="#000000" font-family="sans-serif" font-size="13" lengthAdjust="spacing" textLength="94.5881" x="203.2561" y="323.5629">Package details</text></g><g class="message" data-participant-1="Main" data-participant-2="Graph"><polygon fill="#181818" points="558.2908,357.0779,568.2908,361.0779,558.2908,365.0779,562.2908,361.0779" style="stroke:#181818;stroke-width:1;"/><line style="stroke:#181818;stroke-width:1;" x1="186.2561" x2="564.2908" y1="361.0779" y2="361.0779"/><text fill="#000000" font-family="sans-serif" font-size="13" lengthAdjust="spacing" textLength="153.8161" x="193.2561" y="355.2689">BuildFor(packages, table)</text></g><g class="message" data-participant-1="Graph" data-participant-2="Graph"><line style="stroke:#181818;stroke-width:1;" x1="580.2908" x2="622.2908" y1="392.784" y2="392.784"/><line style="stroke:#181818;stroke-width:1;" x1="622.2908" x2="622.2908" y1="392.784" y2="405.784"/><line style="stroke:#181818;stroke-width:1;" x1="581.2908" x2="622.2908" y1="405.784" y2="405.784"/><polygon fill="#181818" points="591.2908,401.784,581.2908,405.784,591.2908,409.784,587.2908,405.784" style="stroke:#181818;stroke-width:1;"/><text fill="#000000" font-family="sans-serif" font-size="13" lengthAdjust="spacing" textLength="149.5522" x="587.2908" y="386.975">Build dependency graph</text></g><g class="message" data-participant-1="Graph" data-participant-2="Graph"><line style="stroke:#181818;stroke-width:1;" x1="580.2908" x2="622.2908" y1="437.49" y2="437.49"/><line style="stroke:#181818;stroke-width:1;" x1="622.2908" x2="622.2908" y1="437.49" y2="450.49"/><line style="stroke:#181818;stroke-width:1;" x1="581.2908" x2="622.2908" y1="450.49" y2="450.49"/><polygon fill="#181818" points="591.2908,446.49,581.2908,450.49,591.2908,454.49,587.2908,450.49" style="stroke:#181818;stroke-width:1;"/><text fill="#000000" font-family="sans-serif" font-size="13" lengthAdjust="spacing" textLength="97.2531" x="587.2908" y="431.681">Check for cycles</text></g><g class="message" data-participant-1="Graph" data-participant-2="Main"><polygon fill="#181818" points="197.2561,478.196,187.2561,482.196,197.2561,486.196,193.2561,482.196" style="stroke:#181818;stroke-width:1;"/><line style="stroke:#181818;stroke-width:1;stroke-dasharray:2.0,2.0;" x1="191.2561" x2="574.2908" y1="482.196" y2="482.196"/><text fill="#000000" font-family="sans-serif" font-size="13" lengthAdjust="spacing" textLength="116.4801" x="203.2561" y="476.387">Dependency graph</text></g><g class="message" data-participant-1="Main" data-participant-2="Shell"><polygon fill="#181818" points="869.8556,509.902,879.8556,513.902,869.8556,517.902,873.8556,513.902" style="stroke:#181818;stroke-width:1;"/><line style="stroke:#181818;stroke-width:1;" x1="186.2561" x2="875.8556" y1="513.902" y2="513.902"/><text fill="#000000" font-family="sans-serif" font-size="13" lengthAdjust="spacing" textLength="80.1061" x="193.2561" y="508.093">CloneRepos()</text></g><g class="message" data-participant-1="Shell" data-participant-2="Shell"><line style="stroke:#181818;stroke-width:1;" x1="891.8556" x2="933.8556" y1="545.608" y2="545.608"/><line style="stroke:#181818;stroke-width:1;" x1="933.8556" x2="933.8556" y1="545.608" y2="558.608"/><line style="stroke:#181818;stroke-width:1;" x1="892.8556" x2="933.8556" y1="558.608" y2="558.608"/><polygon fill="#181818" points="902.8556,554.608,892.8556,558.608,902.8556,562.608,898.8556,558.608" style="stroke:#181818;stroke-width:1;"/><text fill="#000000" font-family="sans-serif" font-size="13" lengthAdjust="spacing" textLength="129.8181" x="898.8556" y="539.799">Clone/pull AUR repos</text></g><g class="message" data-participant-1="Shell" data-participant-2="Main"><polygon fill="#181818" points="197.2561,586.314,187.2561,590.314,197.2561,594.314,193.2561,590.314" style="stroke:#181818;stroke-width:1;"/><line style="stroke:#181818;stroke-width:1;stroke-dasharray:2.0,2.0;" x1="191.2561" x2="885.8556" y1="590.314" y2="590.314"/><text fill="#000000" font-family="sans-serif" font-size="13" lengthAdjust="spacing" textLength="81.7051" x="203.2561" y="584.505">Repos cloned</text></g><g class="message" data-participant-1="Main" data-participant-2="Shell"><polygon fill="#181818" points="869.8556,618.0201,879.8556,622.0201,869.8556,626.0201,873.8556,622.0201" style="stroke:#181818;stroke-width:1;"/><line style="stroke:#181818;stroke-width:1;" x1="186.2561" x2="875.8556" y1="622.0201" y2="622.0201"/><text fill="#000000" font-family="sans-serif" font-size="13" lengthAdjust="spacing" textLength="98.3451" x="193.2561" y="616.2111">MakePackages()</text></g><g class="message" data-participant-1="Shell" data-participant-2="Shell"><line style="stroke:#181818;stroke-width:1;" x1="891.8556" x2="933.8556" y1="653.7261" y2="653.7261"/><line style="stroke:#181818;stroke-width:1;" x1="933.8556" x2="933.8556" y1="653.7261" y2="666.7261"/><line style="stroke:#181818;stroke-width:1;" x1="892.8556" x2="933.8556" y1="666.7261" y2="666.7261"/><polygon fill="#181818" points="902.8556,662.7261,892.8556,666.7261,902.8556,670.7261,898.8556,666.7261" style="stroke:#181818;stroke-width:1;"/><text fill="#000000" font-family="sans-serif" font-size="13" lengthAdjust="spacing" textLength="84.1881" x="898.8556" y="647.9171">Run makepkg</text></g><g class="message" data-participant-1="Shell" data-participant-2="Main"><polygon fill="#181818" points="197.2561,694.4321,187.2561,698.4321,197.2561,702.4321,193.2561,698.4321" style="stroke:#181818;stroke-width:1;"/><line style="stroke:#181818;stroke-width:1;stroke-dasharray:2.0,2.0;" x1="191.2561" x2="885.8556" y1="698.4321" y2="698.4321"/><text fill="#000000" font-family="sans-serif" font-size="13" lengthAdjust="spacing" textLength="87.9971" x="203.2561" y="692.6231">Packages built</text></g><g class="message" data-participant-1="Main" data-participant-2="User"><polygon fill="#181818" points="34.3089,726.1381,24.3089,730.1381,34.3089,734.1381,30.3089,730.1381" style="stroke:#181818;stroke-width:1;"/><line style="stroke:#181818;stroke-width:1;stroke-dasharray:2.0,2.0;" x1="28.3089" x2="180.2561" y1="730.1381" y2="730.1381"/><text fill="#000000" font-family="sans-serif" font-size="13" lengthAdjust="spacing" textLength="128.9471" x="40.3089" y="724.3291">Installation complete</text></g><!--SRC=[ZLDBReCm4DrpYb5NgTIeUnQLcj14NKIAg7A0YPc0XMDRnccKszSsu1ZIIbrWOVpcVSQ3vLOGx96rM1DyoiwY46Yvah0HwffboAmoSEZ8P1gDvOnhb1QUzaRL1izFW1tiaClfQQdPXwovf71UxjUpubxFoMdo_04LTrFirg1k0Y2yJGyBj7Z4ZjPAMgE4e9wgM4rXNmq9KLwa7Cx3FijyAbY-1V_v61vqRwxpqVatMkhpPNxrQ9V6WqzgCIAVxr0VrJsmZBHZRxcho2gQ82Ddp9w3f2lC-xCeLed6lL7nRSQnHTkuQ3gLJh0FtYgoo4MNshkBH9EX_pciBbnK6sTgZFy2xX849GxxcmhhlD1fQP8LINQ3-bVOkY7MmiaPPJSct3qCWEYwc3CajdlbQ3bSjACKIb99MdMBn6K_1M6TOr_rnNryFvHWVDK8YXO25p0FhLBvOR1cyZjiQMZrFmouEOMpgz1j_Q0xii3HzTB-gUpmVhRpwG_Dr5aBifIMXT7-0G00]--></g></svg>