<?xml version="1.0" encoding="UTF-8" standalone="no"?>
<!DOCTYPE svg PUBLIC "-//W3C//DTD SVG 1.1//EN"
 "http://www.w3.org/Graphics/SVG/1.1/DTD/svg11.dtd">
<!-- Generated by graphviz version 12.2.1 (0)
 -->
<!-- Title: G Pages: 1 -->
<svg width="1173pt" height="260pt"
 viewBox="0.00 0.00 1173.07 260.00" xmlns="http://www.w3.org/2000/svg" xmlns:xlink="http://www.w3.org/1999/xlink">
<g id="graph0" class="graph" transform="scale(1 1) rotate(0) translate(4 256)">
<title>G</title>
<polygon fill="white" stroke="none" points="-4,4 -4,-256 1169.07,-256 1169.07,4 -4,4"/>
<!-- 0 -->
<g id="node1" class="node">
<title>0</title>
<ellipse fill="none" stroke="black" cx="29.34" cy="-234" rx="29.34" ry="18"/>
<text text-anchor="middle" x="29.34" y="-228.95" font-family="Times,serif" font-size="14.00">clion</text>
</g>
<!-- 1 -->
<g id="node2" class="node">
<title>1</title>
<ellipse fill="none" stroke="black" cx="138.34" cy="-234" rx="62.1" ry="18"/>
<text text-anchor="middle" x="138.34" y="-228.95" font-family="Times,serif" font-size="14.00">obs&#45;studio&#45;git</text>
</g>
<!-- 2 -->
<g id="node3" class="node">
<title>2</title>
<ellipse fill="none" stroke="black" cx="91.34" cy="-162" rx="27" ry="18"/>
<text text-anchor="middle" x="91.34" y="-156.95" font-family="Times,serif" font-size="14.00">jack</text>
</g>
<!-- 1&#45;&gt;2 -->
<g id="edge1" class="edge">
<title>1&#45;&gt;2</title>
<path fill="none" stroke="black" d="M126.97,-216.05C121.38,-207.73 114.54,-197.54 108.34,-188.32"/>
<polygon fill="black" stroke="black" points="111.3,-186.44 102.82,-180.09 105.48,-190.34 111.3,-186.44"/>
</g>
<!-- 3 -->
<g id="node4" class="node">
<title>3</title>
<ellipse fill="none" stroke="black" cx="184.34" cy="-162" rx="47.77" ry="18"/>
<text text-anchor="middle" x="184.34" y="-156.95" font-family="Times,serif" font-size="14.00">libajantv2</text>
</g>
<!-- 1&#45;&gt;3 -->
<g id="edge2" class="edge">
<title>1&#45;&gt;3</title>
<path fill="none" stroke="black" d="M149.48,-216.05C154.73,-208.06 161.13,-198.33 167,-189.4"/>
<polygon fill="black" stroke="black" points="169.91,-191.33 172.48,-181.05 164.06,-187.49 169.91,-191.33"/>
</g>
<!-- 4 -->
<g id="node5" class="node">
<title>4</title>
<ellipse fill="none" stroke="black" cx="91.34" cy="-90" rx="27" ry="18"/>
<text text-anchor="middle" x="91.34" y="-84.95" font-family="Times,serif" font-size="14.00">celt</text>
</g>
<!-- 2&#45;&gt;4 -->
<g id="edge3" class="edge">
<title>2&#45;&gt;4</title>
<path fill="none" stroke="black" d="M91.34,-143.7C91.34,-136.41 91.34,-127.73 91.34,-119.54"/>
<polygon fill="black" stroke="black" points="94.84,-119.62 91.34,-109.62 87.84,-119.62 94.84,-119.62"/>
</g>
<!-- 5 -->
<g id="node6" class="node">
<title>5</title>
<ellipse fill="none" stroke="black" cx="558.34" cy="-234" rx="97.93" ry="18"/>
<text text-anchor="middle" x="558.34" y="-228.95" font-family="Times,serif" font-size="14.00">meta&#45;package&#45;manager</text>
</g>
<!-- 6 -->
<g id="node7" class="node">
<title>6</title>
<ellipse fill="none" stroke="black" cx="298.34" cy="-18" rx="66.71" ry="18"/>
<text text-anchor="middle" x="298.34" y="-12.95" font-family="Times,serif" font-size="14.00">python&#45;boltons</text>
</g>
<!-- 5&#45;&gt;6 -->
<g id="edge4" class="edge">
<title>5&#45;&gt;6</title>
<path fill="none" stroke="black" d="M466.11,-227.57C395.48,-221.26 306.37,-207.89 283.34,-180 252.22,-142.3 270.38,-81.39 285.18,-46.29"/>
<polygon fill="black" stroke="black" points="288.33,-47.81 289.18,-37.25 281.93,-44.97 288.33,-47.81"/>
</g>
<!-- 7 -->
<g id="node8" class="node">
<title>7</title>
<ellipse fill="none" stroke="black" cx="371.34" cy="-162" rx="78.99" ry="18"/>
<text text-anchor="middle" x="371.34" y="-156.95" font-family="Times,serif" font-size="14.00">python&#45;click&#45;extra</text>
</g>
<!-- 5&#45;&gt;7 -->
<g id="edge5" class="edge">
<title>5&#45;&gt;7</title>
<path fill="none" stroke="black" d="M516.38,-217.29C488.37,-206.81 451.4,-192.97 421.79,-181.88"/>
<polygon fill="black" stroke="black" points="423.26,-178.7 412.67,-178.47 420.8,-185.25 423.26,-178.7"/>
</g>
<!-- 8 -->
<g id="node9" class="node">
<title>8</title>
<ellipse fill="none" stroke="black" cx="558.34" cy="-162" rx="90.25" ry="18"/>
<text text-anchor="middle" x="558.34" y="-156.95" font-family="Times,serif" font-size="14.00">python&#45;cyclonedx&#45;lib</text>
</g>
<!-- 5&#45;&gt;8 -->
<g id="edge6" class="edge">
<title>5&#45;&gt;8</title>
<path fill="none" stroke="black" d="M558.34,-215.7C558.34,-208.41 558.34,-199.73 558.34,-191.54"/>
<polygon fill="black" stroke="black" points="561.84,-191.62 558.34,-181.62 554.84,-191.62 561.84,-191.62"/>
</g>
<!-- 9 -->
<g id="node10" class="node">
<title>9</title>
<ellipse fill="none" stroke="black" cx="618.34" cy="-90" rx="80.01" ry="18"/>
<text text-anchor="middle" x="618.34" y="-84.95" font-family="Times,serif" font-size="14.00">python&#45;packageurl</text>
</g>
<!-- 5&#45;&gt;9 -->
<g id="edge7" class="edge">
<title>5&#45;&gt;9</title>
<path fill="none" stroke="black" d="M609.02,-218.22C627.57,-210.09 646.63,-197.9 657.34,-180 669.5,-159.7 656.62,-134.92 642.49,-116.66"/>
<polygon fill="black" stroke="black" points="645.38,-114.66 636.31,-109.19 639.99,-119.13 645.38,-114.66"/>
</g>
<!-- 10 -->
<g id="node11" class="node">
<title>10</title>
<ellipse fill="none" stroke="black" cx="865.34" cy="-162" rx="77.97" ry="18"/>
<text text-anchor="middle" x="865.34" y="-156.95" font-family="Times,serif" font-size="14.00">python&#45;spdx&#45;tools</text>
</g>
<!-- 5&#45;&gt;10 -->
<g id="edge8" class="edge">
<title>5&#45;&gt;10</title>
<path fill="none" stroke="black" d="M618.27,-219.34C670.56,-207.41 746.28,-190.15 800.1,-177.88"/>
<polygon fill="black" stroke="black" points="800.78,-181.31 809.75,-175.68 799.23,-174.49 800.78,-181.31"/>
</g>
<!-- 7&#45;&gt;6 -->
<g id="edge9" class="edge">
<title>7&#45;&gt;6</title>
<path fill="none" stroke="black" d="M349.06,-144.41C337.9,-134.95 325.13,-122.16 317.34,-108 307.15,-89.46 302.43,-65.97 300.23,-47.78"/>
<polygon fill="black" stroke="black" points="303.73,-47.53 299.26,-37.93 296.76,-48.23 303.73,-47.53"/>
</g>
<!-- 15 -->
<g id="node16" class="node">
<title>15</title>
<ellipse fill="none" stroke="black" cx="423.34" cy="-90" rx="96.9" ry="18"/>
<text text-anchor="middle" x="423.34" y="-84.95" font-family="Times,serif" font-size="14.00">python&#45;extra&#45;platforms</text>
</g>
<!-- 7&#45;&gt;15 -->
<g id="edge10" class="edge">
<title>7&#45;&gt;15</title>
<path fill="none" stroke="black" d="M383.93,-144.05C389.85,-136.09 397.04,-126.41 403.65,-117.51"/>
<polygon fill="black" stroke="black" points="406.45,-119.6 409.61,-109.49 400.84,-115.43 406.45,-119.6"/>
</g>
<!-- 8&#45;&gt;9 -->
<g id="edge11" class="edge">
<title>8&#45;&gt;9</title>
<path fill="none" stroke="black" d="M572.87,-144.05C580.02,-135.71 588.78,-125.49 596.7,-116.25"/>
<polygon fill="black" stroke="black" points="599.12,-118.81 602.97,-108.94 593.8,-114.25 599.12,-118.81"/>
</g>
<!-- 11 -->
<g id="node12" class="node">
<title>11</title>
<ellipse fill="none" stroke="black" cx="787.34" cy="-90" rx="71.31" ry="18"/>
<text text-anchor="middle" x="787.34" y="-84.95" font-family="Times,serif" font-size="14.00">python&#45;beartype</text>
</g>
<!-- 10&#45;&gt;11 -->
<g id="edge12" class="edge">
<title>10&#45;&gt;11</title>
<path fill="none" stroke="black" d="M846.46,-144.05C836.88,-135.46 825.07,-124.86 814.53,-115.4"/>
<polygon fill="black" stroke="black" points="816.96,-112.87 807.18,-108.8 812.28,-118.08 816.96,-112.87"/>
</g>
<!-- 12 -->
<g id="node13" class="node">
<title>12</title>
<ellipse fill="none" stroke="black" cx="944.34" cy="-90" rx="67.73" ry="18"/>
<text text-anchor="middle" x="944.34" y="-84.95" font-family="Times,serif" font-size="14.00">python&#45;uritools</text>
</g>
<!-- 10&#45;&gt;12 -->
<g id="edge13" class="edge">
<title>10&#45;&gt;12</title>
<path fill="none" stroke="black" d="M884.07,-144.41C893.93,-135.67 906.21,-124.79 917.11,-115.13"/>
<polygon fill="black" stroke="black" points="919.19,-117.97 924.35,-108.72 914.54,-112.73 919.19,-117.97"/>
</g>
<!-- 13 -->
<g id="node14" class="node">
<title>13</title>
<ellipse fill="none" stroke="black" cx="1097.34" cy="-90" rx="67.73" ry="18"/>
<text text-anchor="middle" x="1097.34" y="-84.95" font-family="Times,serif" font-size="14.00">python&#45;pyshacl</text>
</g>
<!-- 10&#45;&gt;13 -->
<g id="edge14" class="edge">
<title>10&#45;&gt;13</title>
<path fill="none" stroke="black" d="M911.46,-147.09C949.26,-135.68 1002.86,-119.51 1042.8,-107.46"/>
<polygon fill="black" stroke="black" points="1043.66,-110.85 1052.22,-104.61 1041.64,-104.15 1043.66,-110.85"/>
</g>
<!-- 14 -->
<g id="node15" class="node">
<title>14</title>
<ellipse fill="none" stroke="black" cx="787.34" cy="-18" rx="74.89" ry="18"/>
<text text-anchor="middle" x="787.34" y="-12.95" font-family="Times,serif" font-size="14.00">python&#45;rich&#45;click</text>
</g>
<!-- 11&#45;&gt;14 -->
<g id="edge15" class="edge">
<title>11&#45;&gt;14</title>
<path fill="none" stroke="black" d="M787.34,-71.7C787.34,-64.41 787.34,-55.73 787.34,-47.54"/>
<polygon fill="black" stroke="black" points="790.84,-47.62 787.34,-37.62 783.84,-47.62 790.84,-47.62"/>
</g>
<!-- 15&#45;&gt;6 -->
<g id="edge16" class="edge">
<title>15&#45;&gt;6</title>
<path fill="none" stroke="black" d="M393.72,-72.41C376.54,-62.79 354.73,-50.58 336.31,-40.26"/>
<polygon fill="black" stroke="black" points="338.22,-37.32 327.79,-35.49 334.8,-43.43 338.22,-37.32"/>
</g>
</g>
</svg>
